<?xml version="1.0" encoding="utf-8"?><svg width="79" height="66" viewBox="0 0 79 66" xmlns="http://www.w3.org/2000/svg" xmlns:xlink="http://www.w3.org/1999/xlink"><view id="assets--sprites--bookmark-primary" viewBox="51 0 14 19"/><svg id="aCalque_1" viewBox="0 0 14 19" width="14" height="19" x="51" xmlns="http://www.w3.org/2000/svg"><style>.ast0{fill:#3cb4cb}</style><g id="aSymbols"><g id="aic_x2F_bookmark_x5F_border_x2F_grey600" transform="translate(-5 -3)"><g id="aic_bookmark_border_24px"><path id="aShape" class="ast0" d="M17 3H7C5.9 3 5 4 5 5.1V22l7-3.2 7 3.2V5.1C19 4 18.1 3 17 3zm0 16l-5-2.3L7 19V5h10v14z"/></g></g></g></svg><view id="assets--sprites--bookmark-white" viewBox="51 19 14 19"/><svg width="14" height="19" viewBox="0 0 14 19" x="51" y="19" xmlns="http://www.w3.org/2000/svg"><path d="M12 0H2C.9 0 .01.95.01 2.111L0 19l7-3.167L14 19V2.111C14 .95 13.1 0 12 0zm0 16l-5-2.348L2 16V2h10v14z" fill="#FFF" fill-rule="nonzero"/></svg><view id="assets--sprites--bookmarked-primary" viewBox="65 0 14 19"/><svg id="cCalque_1" viewBox="0 0 14 19" width="14" height="19" x="65" xmlns="http://www.w3.org/2000/svg"><style>.cst0{fill:#3cb4cb}</style><g id="cSymbols"><g id="cic_x2F_bookmark_x5F_border_x2F_grey600" transform="translate(-5 -3)"><g id="cic_bookmark_border_24px"><path id="cShape" class="cst0" d="M17 3H7C5.9 3 5 4 5 5.1V22l7-3.2 7 3.2V5.1C19 4 18.1 3 17 3zm0 16l-5-2.3L7 19V5h10v14z"/></g></g></g><path class="cst0" d="M2 2h10.3v13.7H2z"/><path class="cst0" d="M1.6 2.4h1.1v13.7H1.6zM11.2 2.4h1.1v13.7h-1.1z"/></svg><view id="assets--sprites--bookmarked-white" viewBox="65 19 14 19"/><svg id="dCalque_1" viewBox="0 0 14 19" width="14" height="19" x="65" y="19" xmlns="http://www.w3.org/2000/svg"><style>.dst0{fill:#fff}</style><g id="dSymbols"><g id="dic_x2F_bookmark_x5F_border_x2F_grey600" transform="translate(-5 -3)"><g id="dic_bookmark_border_24px"><path id="dShape" class="dst0" d="M17 3H7C5.9 3 5 4 5 5.1V22l7-3.2 7 3.2V5.1C19 4 18.1 3 17 3zm0 16l-5-2.3L7 19V5h10v14z"/></g></g></g><path class="dst0" d="M2 2h10.3v13.7H2z"/><path class="dst0" d="M1.6 2.4h1.1v13.7H1.6zM11.2 2.4h1.1v13.7h-1.1z"/></svg><view id="assets--sprites--dislike-white" viewBox="25.8 0 25.2 22.5"/><svg id="eCalque_1" viewBox="0 0 25.2 22.5" width="25.2" height="22.5" x="25.8" xmlns="http://www.w3.org/2000/svg"><style>.est0{fill:#fff}</style><g id="eSymbols"><g id="eic_x2F_thumb_x5F_up_x2F_grey600" transform="translate(-1 -1)"><g id="eic_thumb_up_24px"><path id="eShape" class="est0" d="M24.4 2.2h-4v12h4v-12zm-22 11c0 1.1.9 2 2 2h6.3l-1 4.6v.3c0 .4.2.8.4 1.1l1.1 1 6.6-6.6c.4-.4.6-.9.6-1.4v-10c0-1.1-.9-2-2-2h-9c-.8 0-1.5.5-1.8 1.2l-3 7.1c-.2.2-.2.4-.2.7v2z"/></g></g></g></svg><view id="assets--sprites--home-primary" viewBox="0 0 25.8 25.4"/><svg id="fLayer_1" viewBox="0 0 25.8 25.4" width="25.8" height="25.4" xmlns="http://www.w3.org/2000/svg"><style>.fst0{fill:#3cb4cb}</style><path class="fst0" d="M25.5 10.1l-12-8.8c-.2-.2-.5-.2-.8 0L.6 10.1c-.3.2-.4.6-.1.9s.6.4.9.1l11.7-8.5 11.7 8.5c.1.1.3.1.4.1.2 0 .4-.1.5-.3.2-.2.1-.6-.2-.8z"/><path class="fst0" d="M22.3 11.3c-.4 0-.7.3-.7.7v10.5h-5.3v-5.7c0-1.8-1.5-3.3-3.3-3.3S9.8 15 9.8 16.8v5.7H4.5V12c0-.4-.3-.7-.7-.7s-.6.3-.6.7v11.2c0 .4.3.7.7.7h6.6c.3 0 .6-.3.7-.6v-6.4c0-1.1.9-2 2-2s2 .9 2 2v6.4c0 .3.3.6.7.6h6.6c.4 0 .7-.3.7-.7V12c-.2-.4-.5-.7-.9-.7z"/></svg><view id="assets--sprites--pen-white" viewBox="25.2 25.4 19.5 19.5"/><svg id="gCalque_1" viewBox="0 0 19.5 19.5" width="19.5" height="19.5" x="25.2" y="25.4" xmlns="http://www.w3.org/2000/svg"><style>.gst0{fill:#fff}</style><g id="gSymbols"><g id="gic_x2F_mode_x5F_edit_x2F_grey600" transform="translate(-3 -3)"><g id="gic_mode_edit_24px"><path id="gShape" class="gst0" d="M3.8 18.1v3.8h3.8l11.1-11.1L14.9 7 3.8 18.1zM21.5 7.8c.4-.4.4-1 0-1.4l-2.3-2.3c-.4-.4-1-.4-1.4 0L16 5.9l3.8 3.8 1.7-1.9z"/></g></g></g></svg><view id="assets--sprites--search-primary" viewBox="18 47.9 11 11"/><svg id="hCalque_1" viewBox="0 0 11 11" width="11" height="11" x="18" y="47.9" xmlns="http://www.w3.org/2000/svg"><style>.hst0{fill:#3cb4cb}</style><g id="hSymbols"><g id="hContent_x2F_Search_x2F_Results" transform="translate(-311 -69)"><g id="hButton_x2F_Search" transform="translate(303 61)"><g id="hic_search_24px" transform="translate(7 7)"><path id="hShape" class="hst0" d="M8.8 8h-.4l-.2-.2c.6-.7.9-1.5.9-2.5 0-2.1-1.7-3.8-3.8-3.8S1.6 3.2 1.6 5.3s1.7 3.8 3.8 3.8c.9 0 1.7-.3 2.4-.9l.2.2v.4l2.9 2.9.9-.9-3-2.8zM5.3 8C3.9 8 2.7 6.8 2.7 5.3s1.2-2.6 2.6-2.6 2.6 1.2 2.6 2.6S6.8 8 5.3 8z"/></g></g></g></g></svg><view id="assets--sprites--thumbs-up-white" viewBox="0 25.4 25.2 22.5"/><svg id="iCalque_1" viewBox="0 0 25.2 22.5" width="25.2" height="22.5" y="25.4" xmlns="http://www.w3.org/2000/svg"><style>.ist0{fill:#fff}</style><g id="iSymbols"><g id="iic_x2F_thumb_x5F_up_x2F_grey600" transform="translate(-1 -1)"><g id="iic_thumb_up_24px"><path id="iShape" class="ist0" d="M2.4 22.2h4v-12h-4v12zm22-11c0-1.1-.9-2-2-2h-6.3l1-4.6v-.3c0-.4-.2-.8-.4-1.1l-1.1-1L9 8.8c-.4.4-.6.9-.6 1.4v10c0 1.1.9 2 2 2h9c.8 0 1.5-.5 1.8-1.2l3-7.1c.2-.2.2-.4.2-.7v-2z"/></g></g></g></svg><view id="assets--sprites--user-primary" viewBox="0 47.9 18 18"/><svg id="jCalque_1" viewBox="0 0 18 18" width="18" height="18" y="47.9" xmlns="http://www.w3.org/2000/svg"><style>.jst0{fill:#3cb4cb}</style><g id="jSymbols"><g id="jMenu_x2F_Bottom" transform="translate(-318 -23)"><g id="juser" transform="translate(318 23)"><path id="jShape" class="jst0" d="M15.4 11.6c-1-1-2.1-1.7-3.4-2.1 1.4-.9 2.3-2.5 2.3-4.3C14.2 2.3 11.9 0 9 0S3.8 2.3 3.8 5.2c0 1.8.9 3.3 2.3 4.3-1.3.4-2.4 1.2-3.4 2.1C.9 13.3 0 15.6 0 18h1.4c0-4.2 3.4-7.6 7.6-7.6s7.6 3.4 7.6 7.6H18c0-2.4-.9-4.7-2.6-6.4zM9 9C6.9 9 5.2 7.3 5.2 5.2S6.9 1.4 9 1.4s3.8 1.7 3.8 3.8S11.1 9 9 9z"/></g></g></g></svg></svg>