<?xml version="1.0" encoding="utf-8"?>
<!-- Generator: Adobe Illustrator 21.1.0, SVG Export Plug-In . SVG Version: 6.00 Build 0)  -->
<svg version="1.1" id="Calque_1" xmlns="http://www.w3.org/2000/svg" xmlns:xlink="http://www.w3.org/1999/xlink" x="0px" y="0px"
	 viewBox="0 0 207.6 34.9" style="enable-background:new 0 0 207.6 34.9;" xml:space="preserve">
<style type="text/css">
	.st0{enable-background:new    ;}
	.st1{fill:#FFFFFF;}
</style>
<title>what?</title>
<g class="st0">
	<path class="st1" d="M8.8,6.5c0,0.4-0.1,1-0.3,1.7C8.3,9,8.1,9.8,7.8,10.8c-0.3,1-0.6,2.1-0.9,3.2c-0.3,1.2-0.6,2.3-0.9,3.5
		c-0.3,1.2-0.5,2.4-0.7,3.5c-0.2,1.2-0.3,2.2-0.3,3.2c0,0.8,0.1,1.6,0.2,2.3c0.1,0.7,0.3,1.3,0.5,1.8c0.2,0.5,0.5,0.9,0.9,1.2
		c0.3,0.3,0.7,0.4,1.2,0.4c0.5,0,0.9-0.1,1.4-0.4s0.9-0.6,1.3-1.1s0.8-1,1.2-1.7c0.4-0.7,0.7-1.4,1.1-2.1c0.3-0.8,0.7-1.6,1-2.4
		s0.6-1.7,0.9-2.6c1-3.1,1.8-6.5,2.5-10.4c0.1-0.6,0.3-1.2,0.5-1.6c0.2-0.4,0.4-0.8,0.7-1c0.3-0.2,0.6-0.4,0.9-0.5
		c0.3-0.1,0.7-0.2,1.2-0.2c0.4,0,0.8,0,1.1,0.1c0.3,0.1,0.5,0.2,0.7,0.3s0.3,0.3,0.4,0.5c0.1,0.2,0.1,0.4,0.1,0.7c0,0.1,0,0.4-0.1,1
		c-0.1,0.6-0.2,1.3-0.4,2.3c-0.1,0.9-0.3,2-0.5,3.1c-0.2,1.2-0.3,2.4-0.5,3.6c-0.1,1.2-0.3,2.4-0.4,3.6c-0.1,1.2-0.1,2.3-0.1,3.3
		c0,1,0,2,0.1,2.8c0.1,0.8,0.2,1.5,0.4,2.1c0.2,0.6,0.4,1,0.7,1.3c0.3,0.3,0.6,0.5,1.1,0.5c0.7,0,1.4-0.3,2-0.9
		c0.6-0.6,1.1-1.3,1.6-2.3c0.5-1,0.9-2.1,1.3-3.3c0.4-1.3,0.7-2.6,1-3.9s0.6-2.7,0.8-4.1c0.2-1.4,0.4-2.7,0.6-3.9
		c0.1-1.2,0.3-2.3,0.4-3.3c0.1-1,0.1-1.8,0.2-2.3c0-0.6,0.1-1,0.3-1.4c0.2-0.4,0.4-0.6,0.7-0.8c0.3-0.2,0.6-0.3,0.9-0.4
		c0.3-0.1,0.7-0.1,1.1-0.1c0.3,0,0.5,0,0.8,0.1c0.2,0.1,0.4,0.2,0.6,0.3c0.2,0.2,0.3,0.4,0.4,0.6c0.1,0.3,0.1,0.6,0.1,1
		c0,1.1-0.1,2.3-0.2,3.6c-0.1,1.3-0.3,2.6-0.5,3.9c-0.2,1.3-0.4,2.5-0.7,3.8c-0.2,1.2-0.5,2.3-0.7,3.3c-0.2,1-0.4,1.8-0.5,2.5
		c-0.1,0.7-0.2,1.1-0.2,1.3c0,0.4,0.1,0.8,0.2,1.1c0.1,0.3,0.3,0.6,0.5,0.8s0.5,0.4,0.8,0.4c0.3,0.1,0.6,0.1,0.9,0.1
		c0.3,0,0.7-0.1,1-0.2c0.3-0.2,0.7-0.4,1-0.6c0.3-0.3,0.6-0.6,0.9-1c0.3-0.4,0.5-0.8,0.7-1.3l0.3,3.5c-0.8,1-1.7,1.7-2.6,2.3
		c-0.9,0.6-1.7,0.8-2.5,0.8c-0.4,0-0.7-0.1-1.1-0.2c-0.3-0.1-0.6-0.3-0.9-0.6c-0.3-0.2-0.5-0.6-0.6-1c-0.2-0.4-0.3-0.9-0.4-1.4
		c-0.6,1.1-1.2,2-1.8,2.9c-0.7,0.8-1.4,1.6-2.1,2.2c-0.7,0.6-1.5,1.1-2.3,1.4c-0.8,0.3-1.6,0.5-2.5,0.5c-1.1,0-2-0.3-2.8-0.9
		c-0.8-0.6-1.4-1.3-1.8-2.3c-0.5-1-0.8-2.1-1-3.5c-0.2-1.3-0.3-2.7-0.3-4.2c0-0.5,0-1.1,0.1-1.5c0.1-0.5,0.1-0.9,0.1-1.3
		c-0.4,2.6-0.9,4.8-1.5,6.5c-0.6,1.7-1.3,3.2-2.2,4.2c-0.8,1.1-1.8,1.8-2.9,2.3c-1.1,0.4-2.3,0.7-3.6,0.7c-0.8,0-1.5-0.2-2.2-0.7
		c-0.7-0.5-1.3-1.2-1.8-2.2c-0.5-1-0.9-2.2-1.2-3.7c-0.3-1.5-0.5-3.2-0.5-5.2c0-1.2,0.1-2.4,0.2-3.7c0.1-1.3,0.3-2.5,0.6-3.8
		c0.3-1.3,0.6-2.5,0.9-3.8c0.4-1.3,0.8-2.5,1.3-3.7C3.9,7,4.2,6.5,4.4,6.1C4.7,5.8,5,5.5,5.3,5.3C5.6,5.2,5.9,5,6.2,5
		C6.5,5,6.8,5,7.1,5C7.4,5,7.6,5,7.8,5C8,5,8.2,5.1,8.3,5.2c0.1,0.1,0.2,0.3,0.3,0.5S8.8,6.2,8.8,6.5z"/>
	<path class="st1" d="M43.1,22.2c0.5-0.6,1-1.3,1.6-2c0.6-0.7,1.2-1.4,1.8-2c0.6-0.6,1.2-1.1,1.9-1.5c0.6-0.4,1.2-0.6,1.8-0.6
		c0.1,0,0.3,0,0.5,0.1c0.2,0.1,0.3,0.1,0.5,0.3c0.2,0.1,0.3,0.3,0.4,0.6s0.2,0.6,0.2,0.9c0,0.8-0.1,1.5-0.3,2.3
		c-0.2,0.7-0.5,1.5-0.7,2.2c-0.3,0.7-0.5,1.5-0.7,2.2c-0.2,0.8-0.3,1.6-0.3,2.4c0,0.5,0.1,0.8,0.2,1.1s0.3,0.4,0.5,0.4
		c0.3,0,0.6-0.1,0.9-0.2c0.3-0.1,0.6-0.3,0.9-0.4c0.3-0.2,0.6-0.4,0.9-0.6c0.3-0.2,0.6-0.5,0.8-0.7c0.6-0.6,1.2-1.2,1.8-2l0.3,4.5
		c-0.2,0.2-0.5,0.4-0.8,0.6c-0.3,0.2-0.7,0.5-1,0.8c-0.4,0.3-0.8,0.5-1.2,0.8s-0.9,0.5-1.3,0.7c-0.5,0.2-0.9,0.4-1.3,0.5
		c-0.5,0.1-0.9,0.2-1.3,0.2c-0.6,0-1.2-0.2-1.6-0.5c-0.5-0.3-0.8-0.8-1.1-1.3c-0.3-0.5-0.5-1.1-0.7-1.7c-0.1-0.6-0.2-1.2-0.2-1.7
		c0-0.4,0-0.8,0.1-1.2s0.2-0.9,0.4-1.4c0.1-0.5,0.3-0.9,0.5-1.3c0.2-0.4,0.3-0.8,0.5-1.2c0.2-0.3,0.3-0.6,0.4-0.8
		c0.1-0.2,0.2-0.3,0.2-0.4L47,21.3c-0.2,0.1-0.5,0.4-1,1c-0.5,0.5-1,1.2-1.6,1.9s-1.2,1.7-1.8,2.6c-0.6,1-1.2,2-1.7,3
		c-0.3,0.5-0.5,1-0.6,1.3c-0.2,0.4-0.3,0.7-0.5,0.9c-0.2,0.2-0.3,0.4-0.5,0.6c-0.2,0.1-0.4,0.2-0.7,0.2c-0.4,0-0.7-0.1-0.9-0.3
		c-0.2-0.2-0.4-0.5-0.5-0.9c-0.1-0.4-0.2-0.8-0.2-1.2C37,30,37,29.5,37,29c0-0.8,0-1.8,0-3c0-1.2,0.1-2.6,0.2-4.1
		c0.1-1.5,0.2-3.1,0.4-4.8c0.2-1.7,0.4-3.3,0.7-4.9c0.3-1.6,0.7-3.2,1.2-4.6c0.5-1.5,1-2.8,1.7-3.9s1.5-2,2.4-2.7c0.9-0.7,2-1,3.1-1
		c0.6,0,1.1,0.1,1.5,0.3c0.4,0.2,0.7,0.4,0.9,0.8c0.2,0.3,0.4,0.7,0.5,1.2c0.1,0.5,0.1,1,0.1,1.5c0,0.8-0.1,1.8-0.4,2.8
		s-0.6,2.1-0.9,3.2c-0.4,1.1-0.8,2.2-1.3,3.4c-0.5,1.1-1,2.2-1.5,3.3c-0.5,1.1-1,2.1-1.5,3c-0.5,0.9-1,1.8-1.3,2.5L43.1,22.2z
		 M44.6,11.7c0.7-1.7,1.2-3.2,1.5-4.4s0.5-2.1,0.5-2.6c0-0.9-0.1-1.3-0.3-1.3c-0.3,0-0.7,0.5-1.3,1.5c-0.6,1-1.3,2.4-2.1,4.2
		c-0.2,0.6-0.4,1.3-0.5,1.9c-0.2,0.7-0.3,1.3-0.4,2c-0.1,0.7-0.3,1.3-0.4,2c-0.1,0.6-0.2,1.3-0.3,1.8c-0.2,1.4-0.3,2.7-0.4,4
		c0.3-0.7,0.6-1.5,1-2.3c0.4-0.8,0.7-1.7,1.1-2.5c0.4-0.8,0.7-1.6,1-2.3C44.1,12.8,44.4,12.2,44.6,11.7z"/>
	<path class="st1" d="M72.6,28.7c-0.3,0.4-0.6,0.8-1.1,1.3c-0.4,0.5-0.9,1-1.5,1.4s-1.1,0.8-1.8,1.1c-0.6,0.3-1.3,0.5-1.9,0.5
		c-0.8,0-1.4-0.2-1.9-0.7c-0.5-0.5-0.9-1.2-1.3-2.1c-0.3,0.3-0.6,0.6-1,1c-0.4,0.3-0.8,0.6-1.3,0.9s-1,0.5-1.5,0.7
		c-0.5,0.2-1,0.3-1.5,0.3c-0.5,0-1.1-0.1-1.6-0.3c-0.5-0.2-1-0.5-1.4-1c-0.4-0.4-0.7-0.9-1-1.5c-0.2-0.6-0.4-1.3-0.4-2
		c0-0.9,0.1-1.7,0.4-2.6c0.2-0.9,0.6-1.8,1-2.6c0.4-0.9,0.9-1.7,1.5-2.4c0.6-0.8,1.2-1.4,1.9-2c0.7-0.6,1.4-1,2.2-1.4
		c0.8-0.3,1.5-0.5,2.3-0.5c0.3,0,0.5,0.1,0.6,0.2c0.1,0.1,0.3,0.2,0.4,0.4c0.1,0.1,0.2,0.3,0.3,0.4c0.1,0.1,0.2,0.2,0.3,0.3
		c0.1,0.1,0.3,0.1,0.4,0.1c0.1,0,0.3,0,0.4,0c0.1,0,0.3,0,0.4,0c0.1,0,0.3,0,0.4,0c0.2,0,0.3,0,0.5,0.1c0.1,0,0.3,0.1,0.4,0.2
		c0.1,0.1,0.2,0.3,0.3,0.5c0.1,0.2,0.1,0.5,0.1,0.8c0,0.5-0.1,1.2-0.2,1.8c-0.1,0.7-0.2,1.3-0.4,2.1c-0.1,0.7-0.3,1.4-0.4,2.1
		c-0.1,0.7-0.2,1.4-0.2,2c0,0.5,0,1,0.1,1.3c0.1,0.3,0.3,0.5,0.6,0.5c0.2,0,0.5-0.1,0.8-0.2c0.3-0.1,0.5-0.3,0.8-0.5
		c0.3-0.2,0.5-0.4,0.8-0.7c0.3-0.2,0.5-0.5,0.8-0.8c0.6-0.6,1.1-1.3,1.7-2.1L72.6,28.7z M58,27.3c0,0.3,0,0.6,0.1,0.8
		s0.1,0.5,0.2,0.7s0.2,0.4,0.4,0.5s0.4,0.2,0.6,0.2c0.4,0,0.8-0.2,1.1-0.5c0.3-0.4,0.6-0.8,0.9-1.3c0.3-0.5,0.5-1,0.6-1.6
		c0.2-0.5,0.3-1,0.3-1.4l1-5c-0.5,0-0.9,0.1-1.4,0.4s-0.9,0.5-1.3,0.9c-0.4,0.4-0.8,0.9-1.1,1.4c-0.3,0.5-0.6,1.1-0.9,1.6
		c-0.2,0.6-0.4,1.1-0.6,1.7C58.1,26.3,58,26.8,58,27.3z"/>
	<path class="st1" d="M84.8,29c-1.1,0.6-2.1,1.2-2.9,1.7s-1.6,0.9-2.3,1.2c-0.7,0.3-1.3,0.6-1.8,0.7c-0.5,0.2-1,0.2-1.4,0.2
		c-0.9,0-1.6-0.3-2.3-0.8c-0.7-0.5-1.2-1.3-1.7-2.3c-0.4-1-0.8-2.2-1-3.6c-0.2-1.4-0.3-3-0.3-4.7c0-0.7,0-1.4,0.1-2.2
		c0.1-0.8,0.1-1.5,0.2-2.3c-0.3,0-0.6-0.1-0.8-0.1c-0.2,0-0.4-0.1-0.6-0.1c-0.2,0-0.5-0.1-0.8-0.1c-0.3,0-0.8-0.1-1.4-0.2
		c-0.3,0-0.5-0.1-0.6-0.2c-0.1-0.1-0.3-0.2-0.3-0.3s-0.1-0.3-0.1-0.4c0-0.1,0-0.3,0-0.4c0-0.2,0.1-0.4,0.3-0.5
		c0.2-0.1,0.5-0.2,0.9-0.3c0.3-0.1,0.7-0.1,1.1-0.1c0.4,0,0.8,0,1.2,0c0.4,0,0.7,0,1,0c0.3,0,0.5,0,0.6,0c0.3-1.5,0.7-3,1.2-4.5
		s1-2.7,1.6-3.8c0.6-1.1,1.2-2,1.9-2.7c0.7-0.7,1.4-1,2.2-1c0.5,0,0.9,0.1,1.3,0.4s0.7,0.6,1,1.1c0.3,0.5,0.5,1,0.7,1.6
		c0.2,0.6,0.2,1.2,0.2,1.9c0,0.6-0.1,1.1-0.2,1.8c-0.2,0.6-0.4,1.3-0.6,1.9c-0.3,0.6-0.6,1.3-1,2c-0.4,0.7-0.8,1.3-1.2,2
		c0.1,0,0.3,0,0.5,0s0.5,0,0.8,0c0.3,0,0.7,0,1,0c0.4,0,0.7,0,1.1,0c0.3,0,0.7,0,1,0c0.3,0,0.5,0,0.7,0c0.2,0,0.4,0.1,0.5,0.3
		c0.1,0.2,0.2,0.5,0.2,0.8c0,0.4-0.1,0.7-0.3,1c-0.2,0.3-0.5,0.4-0.8,0.4h-6.6c-0.3,0.5-0.7,0.9-1,1.3s-0.6,0.8-0.9,1.2
		c0,0.7-0.1,1.4-0.1,2.1c0,0.3,0,0.6,0,0.9c0,0.3,0,0.6,0,0.9c0,0.3,0,0.6,0,0.9c0,0.3,0,0.5,0,0.8c0,0.6,0.1,1.1,0.2,1.6
		c0.1,0.4,0.3,0.8,0.5,1c0.2,0.3,0.5,0.5,0.8,0.6c0.3,0.1,0.7,0.2,1.1,0.2c0.2,0,0.5-0.1,0.9-0.2c0.4-0.1,0.8-0.3,1.2-0.5
		c0.4-0.2,0.9-0.4,1.3-0.7s0.9-0.6,1.4-0.9c0.5-0.3,0.9-0.7,1.3-1c0.4-0.4,0.8-0.7,1.1-1.1V29z M79.3,7.4c0-0.1,0-0.3,0-0.4
		c0-0.2-0.1-0.3-0.1-0.4c-0.1-0.1-0.1-0.2-0.3-0.3c-0.1-0.1-0.3-0.1-0.5-0.1c-0.3,0-0.6,0.3-0.9,0.8c-0.3,0.5-0.6,1.2-0.9,2
		c-0.3,0.8-0.5,1.7-0.8,2.7c-0.2,1-0.5,1.9-0.7,2.9c0.2,0,0.3,0,0.5,0.1c0.2,0,0.3,0,0.5,0.1c0.3-0.6,0.7-1.2,1.1-1.9s0.7-1.3,1-2
		c0.3-0.7,0.5-1.3,0.7-1.8C79.2,8.2,79.3,7.8,79.3,7.4z"/>
	<path class="st1" d="M84.8,10.9c0-0.2,0-0.5,0-0.8c0-0.3,0-0.7,0.1-1.1c0-0.4,0.1-0.8,0.1-1.2s0.1-0.9,0.1-1.3
		c0.1-1,0.2-2.1,0.3-3.2c0-0.3,0.1-0.6,0.3-0.9s0.4-0.5,0.7-0.7c0.3-0.2,0.6-0.3,0.9-0.4c0.3-0.1,0.7-0.2,1-0.2c0.3,0,0.6,0,0.8,0.1
		c0.3,0.1,0.5,0.2,0.7,0.3c0.2,0.1,0.4,0.3,0.5,0.6c0.1,0.2,0.2,0.5,0.2,0.8c0,0.1,0,0.3,0,0.4c0,0.1-0.1,0.3-0.1,0.5
		c-0.2,0.5-0.3,1.1-0.5,1.8c-0.2,0.7-0.4,1.3-0.6,2s-0.4,1.3-0.6,1.9c-0.2,0.6-0.4,1.1-0.5,1.5c-0.2,0.5-0.5,1-0.8,1.2
		c-0.4,0.3-0.7,0.4-1.1,0.4c-0.4,0-0.7-0.1-1-0.4S84.8,11.5,84.8,10.9z"/>
	<path class="st1" d="M94.6,26.3c0.6-0.5,1.2-1,1.6-1.4c0.4-0.4,0.7-0.7,1-1c0.3-0.3,0.5-0.6,0.8-0.9c0.2-0.3,0.5-0.7,0.8-1.1
		c0.3-0.4,0.7-0.9,1.2-1.5c0.5-0.6,1-1.4,1.8-2.3c0.1-0.2,0.3-0.4,0.5-0.6c0.2-0.2,0.4-0.4,0.6-0.5c0.2-0.2,0.5-0.3,0.7-0.4
		c0.3-0.1,0.6-0.1,0.9-0.1c0.5,0,1,0.1,1.3,0.2c0.3,0.1,0.5,0.3,0.6,0.4s0.2,0.4,0.2,0.5c0,0.2,0,0.4,0,0.5c0,0.3-0.1,0.6-0.3,0.9
		c-0.2,0.3-0.5,0.6-0.7,1c-0.3,0.3-0.5,0.6-0.7,0.8c-0.2,0.3-0.4,0.4-0.4,0.6c0,0.4,0,0.7,0.1,1c0.1,0.3,0.1,0.6,0.2,0.9
		c0.1,0.3,0.2,0.6,0.3,0.9c0.1,0.3,0.2,0.7,0.3,1.1c0.1,0.4,0.2,0.9,0.2,1.4c0.1,0.5,0.1,1.2,0.1,1.9c0.4-0.3,0.9-0.5,1.3-0.7
		c0.5-0.2,1-0.5,1.5-0.7s1-0.5,1.6-0.8c0.5-0.3,1.1-0.6,1.6-1.1l0,3.8c-0.7,0.5-1.5,1.1-2.5,1.5s-1.9,0.9-2.9,1.3
		c-1,0.4-2.1,0.7-3.1,0.9c-1,0.2-2,0.3-3,0.3c-0.7,0-1.3-0.1-1.9-0.2s-1.1-0.3-1.5-0.6c-0.4-0.3-0.8-0.6-1.1-1.1
		c-0.3-0.4-0.4-1-0.5-1.6c-0.2,0-0.3,0.1-0.5,0.1c-0.2,0-0.3,0-0.5,0c-0.2,0-0.4,0-0.5,0c-0.2,0-0.3-0.1-0.4-0.1
		c-0.1-0.1-0.2-0.2-0.3-0.4C93,29,93,28.8,93,28.5c0-0.3,0.1-0.5,0.2-0.8c0.1-0.2,0.3-0.4,0.5-0.6c0.2-0.2,0.4-0.3,0.5-0.5
		C94.4,26.5,94.6,26.4,94.6,26.3z M96.8,28.5c0.1,0,0.3,0.1,0.5,0.3c0.2,0.2,0.4,0.4,0.6,0.6c0.2,0.2,0.5,0.4,0.8,0.6
		c0.3,0.2,0.6,0.3,1,0.3c0.4,0,0.8-0.1,1.1-0.2c0.3-0.1,0.5-0.3,0.7-0.6s0.3-0.5,0.4-0.9c0.1-0.3,0.1-0.7,0.1-1c0-0.3,0-0.6-0.1-0.9
		c0-0.3-0.1-0.6-0.2-0.9c-0.1-0.3-0.1-0.6-0.2-0.8c-0.1-0.3-0.1-0.5-0.2-0.7L96.8,28.5z"/>
	<path class="st1" d="M133.5,29c-1.1,0.6-2.1,1.2-2.9,1.7s-1.6,0.9-2.3,1.2c-0.7,0.3-1.3,0.6-1.8,0.7c-0.5,0.2-1,0.2-1.4,0.2
		c-0.9,0-1.6-0.3-2.3-0.8c-0.7-0.5-1.2-1.3-1.7-2.3c-0.4-1-0.8-2.2-1-3.6c-0.2-1.4-0.3-3-0.3-4.7c0-0.7,0-1.4,0.1-2.2
		c0.1-0.8,0.1-1.5,0.2-2.3c-0.3,0-0.6-0.1-0.8-0.1c-0.2,0-0.4-0.1-0.6-0.1c-0.2,0-0.5-0.1-0.8-0.1c-0.3,0-0.8-0.1-1.4-0.2
		c-0.3,0-0.5-0.1-0.6-0.2s-0.3-0.2-0.3-0.3s-0.1-0.3-0.1-0.4s0-0.3,0-0.4c0-0.2,0.1-0.4,0.3-0.5c0.2-0.1,0.5-0.2,0.9-0.3
		c0.3-0.1,0.7-0.1,1.1-0.1c0.4,0,0.8,0,1.2,0c0.4,0,0.7,0,1,0c0.3,0,0.5,0,0.6,0c0.3-1.5,0.7-3,1.2-4.5s1-2.7,1.6-3.8
		c0.6-1.1,1.2-2,1.9-2.7c0.7-0.7,1.4-1,2.2-1c0.5,0,0.9,0.1,1.3,0.4s0.7,0.6,1,1.1c0.3,0.5,0.5,1,0.7,1.6c0.2,0.6,0.2,1.2,0.2,1.9
		c0,0.6-0.1,1.1-0.2,1.8s-0.4,1.3-0.6,1.9c-0.3,0.6-0.6,1.3-1,2c-0.4,0.7-0.8,1.3-1.2,2c0.1,0,0.3,0,0.5,0s0.5,0,0.8,0
		c0.3,0,0.7,0,1,0c0.4,0,0.7,0,1.1,0c0.3,0,0.7,0,1,0c0.3,0,0.5,0,0.7,0c0.2,0,0.4,0.1,0.5,0.3c0.1,0.2,0.2,0.5,0.2,0.8
		c0,0.4-0.1,0.7-0.3,1c-0.2,0.3-0.5,0.4-0.8,0.4h-6.6c-0.3,0.5-0.7,0.9-1,1.3s-0.6,0.8-0.9,1.2c0,0.7-0.1,1.4-0.1,2.1
		c0,0.3,0,0.6,0,0.9c0,0.3,0,0.6,0,0.9s0,0.6,0,0.9c0,0.3,0,0.5,0,0.8c0,0.6,0.1,1.1,0.2,1.6c0.1,0.4,0.3,0.8,0.5,1
		c0.2,0.3,0.5,0.5,0.8,0.6c0.3,0.1,0.7,0.2,1.1,0.2c0.2,0,0.5-0.1,0.9-0.2c0.4-0.1,0.8-0.3,1.2-0.5c0.4-0.2,0.9-0.4,1.3-0.7
		s0.9-0.6,1.4-0.9c0.5-0.3,0.9-0.7,1.3-1c0.4-0.4,0.8-0.7,1.1-1.1V29z M128,7.4c0-0.1,0-0.3,0-0.4c0-0.2-0.1-0.3-0.1-0.4
		s-0.1-0.2-0.3-0.3c-0.1-0.1-0.3-0.1-0.5-0.1c-0.3,0-0.6,0.3-0.9,0.8c-0.3,0.5-0.6,1.2-0.9,2c-0.3,0.8-0.5,1.7-0.8,2.7
		c-0.2,1-0.5,1.9-0.7,2.9c0.2,0,0.3,0,0.5,0.1c0.2,0,0.3,0,0.5,0.1c0.3-0.6,0.7-1.2,1.1-1.9s0.7-1.3,1-2c0.3-0.7,0.5-1.3,0.7-1.8
		C127.9,8.2,128,7.8,128,7.4z"/>
	<path class="st1" d="M138.9,22.2c0.5-0.6,1-1.3,1.6-2c0.6-0.7,1.2-1.4,1.8-2c0.6-0.6,1.2-1.1,1.9-1.5c0.6-0.4,1.2-0.6,1.8-0.6
		c0.1,0,0.3,0,0.5,0.1c0.2,0.1,0.3,0.1,0.5,0.3c0.2,0.1,0.3,0.3,0.4,0.6s0.2,0.6,0.2,0.9c0,0.8-0.1,1.5-0.3,2.3
		c-0.2,0.7-0.5,1.5-0.7,2.2c-0.3,0.7-0.5,1.5-0.7,2.2c-0.2,0.8-0.3,1.6-0.3,2.4c0,0.5,0.1,0.8,0.2,1.1s0.3,0.4,0.5,0.4
		c0.3,0,0.6-0.1,0.9-0.2c0.3-0.1,0.6-0.3,0.9-0.4c0.3-0.2,0.6-0.4,0.9-0.6s0.6-0.5,0.8-0.7c0.6-0.6,1.2-1.2,1.8-2l0.3,4.5
		c-0.2,0.2-0.5,0.4-0.8,0.6c-0.3,0.2-0.7,0.5-1,0.8c-0.4,0.3-0.8,0.5-1.2,0.8s-0.9,0.5-1.3,0.7c-0.5,0.2-0.9,0.4-1.3,0.5
		c-0.5,0.1-0.9,0.2-1.3,0.2c-0.6,0-1.2-0.2-1.6-0.5c-0.5-0.3-0.8-0.8-1.1-1.3c-0.3-0.5-0.5-1.1-0.7-1.7c-0.1-0.6-0.2-1.2-0.2-1.7
		c0-0.4,0-0.8,0.1-1.2s0.2-0.9,0.4-1.4c0.1-0.5,0.3-0.9,0.5-1.3c0.2-0.4,0.3-0.8,0.5-1.2c0.2-0.3,0.3-0.6,0.4-0.8
		c0.1-0.2,0.2-0.3,0.2-0.4l-0.4-0.1c-0.2,0.1-0.5,0.4-1,1c-0.5,0.5-1,1.2-1.6,1.9s-1.2,1.7-1.8,2.6c-0.6,1-1.2,2-1.7,3
		c-0.3,0.5-0.5,1-0.6,1.3c-0.2,0.4-0.3,0.7-0.5,0.9c-0.2,0.2-0.3,0.4-0.5,0.6c-0.2,0.1-0.4,0.2-0.7,0.2c-0.4,0-0.7-0.1-0.9-0.3
		c-0.2-0.2-0.4-0.5-0.5-0.9c-0.1-0.4-0.2-0.8-0.2-1.2c0-0.5-0.1-0.9-0.1-1.4c0-0.8,0-1.8,0-3c0-1.2,0.1-2.6,0.2-4.1
		c0.1-1.5,0.2-3.1,0.4-4.8c0.2-1.7,0.4-3.3,0.7-4.9c0.3-1.6,0.7-3.2,1.2-4.6c0.5-1.5,1-2.8,1.7-3.9s1.5-2,2.4-2.7c0.9-0.7,2-1,3.1-1
		c0.6,0,1.1,0.1,1.5,0.3c0.4,0.2,0.7,0.4,0.9,0.8c0.2,0.3,0.4,0.7,0.5,1.2c0.1,0.5,0.1,1,0.1,1.5c0,0.8-0.1,1.8-0.4,2.8
		s-0.6,2.1-0.9,3.2c-0.4,1.1-0.8,2.2-1.3,3.4c-0.5,1.1-1,2.2-1.5,3.3c-0.5,1.1-1,2.1-1.5,3c-0.5,0.9-1,1.8-1.3,2.5L138.9,22.2z
		 M140.4,11.7c0.7-1.7,1.2-3.2,1.5-4.4s0.5-2.1,0.5-2.6c0-0.9-0.1-1.3-0.3-1.3c-0.3,0-0.7,0.5-1.3,1.5c-0.6,1-1.3,2.4-2.1,4.2
		c-0.2,0.6-0.4,1.3-0.5,1.9c-0.2,0.7-0.3,1.3-0.4,2c-0.1,0.7-0.3,1.3-0.4,2c-0.1,0.6-0.2,1.3-0.3,1.8c-0.2,1.4-0.3,2.7-0.4,4
		c0.3-0.7,0.6-1.5,1-2.3c0.4-0.8,0.7-1.7,1.1-2.5c0.4-0.8,0.7-1.6,1-2.3C139.9,12.8,140.2,12.2,140.4,11.7z"/>
	<path class="st1" d="M168.4,28.7c-0.3,0.4-0.6,0.8-1.1,1.3c-0.4,0.5-0.9,1-1.5,1.4s-1.1,0.8-1.8,1.1c-0.6,0.3-1.3,0.5-1.9,0.5
		c-0.8,0-1.4-0.2-1.9-0.7c-0.5-0.5-0.9-1.2-1.3-2.1c-0.3,0.3-0.6,0.6-1,1c-0.4,0.3-0.8,0.6-1.3,0.9s-1,0.5-1.5,0.7
		c-0.5,0.2-1,0.3-1.5,0.3c-0.5,0-1.1-0.1-1.6-0.3c-0.5-0.2-1-0.5-1.4-1c-0.4-0.4-0.7-0.9-1-1.5c-0.2-0.6-0.4-1.3-0.4-2
		c0-0.9,0.1-1.7,0.4-2.6c0.2-0.9,0.6-1.8,1-2.6c0.4-0.9,0.9-1.7,1.5-2.4c0.6-0.8,1.2-1.4,1.9-2c0.7-0.6,1.4-1,2.2-1.4
		c0.8-0.3,1.5-0.5,2.3-0.5c0.3,0,0.5,0.1,0.6,0.2c0.1,0.1,0.3,0.2,0.4,0.4c0.1,0.1,0.2,0.3,0.3,0.4c0.1,0.1,0.2,0.2,0.3,0.3
		c0.1,0.1,0.3,0.1,0.4,0.1c0.1,0,0.3,0,0.4,0c0.1,0,0.3,0,0.4,0c0.1,0,0.3,0,0.4,0c0.2,0,0.3,0,0.5,0.1s0.3,0.1,0.4,0.2
		c0.1,0.1,0.2,0.3,0.3,0.5s0.1,0.5,0.1,0.8c0,0.5-0.1,1.2-0.2,1.8c-0.1,0.7-0.2,1.3-0.4,2.1c-0.1,0.7-0.3,1.4-0.4,2.1
		c-0.1,0.7-0.2,1.4-0.2,2c0,0.5,0,1,0.1,1.3c0.1,0.3,0.3,0.5,0.6,0.5c0.2,0,0.5-0.1,0.8-0.2c0.3-0.1,0.5-0.3,0.8-0.5
		c0.3-0.2,0.5-0.4,0.8-0.7c0.3-0.2,0.5-0.5,0.8-0.8c0.6-0.6,1.1-1.3,1.7-2.1L168.4,28.7z M153.8,27.3c0,0.3,0,0.6,0.1,0.8
		s0.1,0.5,0.2,0.7s0.2,0.4,0.4,0.5s0.4,0.2,0.6,0.2c0.4,0,0.8-0.2,1.1-0.5c0.3-0.4,0.6-0.8,0.9-1.3c0.2-0.5,0.5-1,0.6-1.6
		c0.2-0.5,0.3-1,0.3-1.4l1-5c-0.5,0-0.9,0.1-1.4,0.4s-0.9,0.5-1.3,0.9c-0.4,0.4-0.8,0.9-1.1,1.4s-0.6,1.1-0.9,1.6
		c-0.2,0.6-0.4,1.1-0.6,1.7C153.8,26.3,153.8,26.8,153.8,27.3z"/>
	<path class="st1" d="M180.6,29c-1.1,0.6-2.1,1.2-2.9,1.7s-1.6,0.9-2.3,1.2c-0.7,0.3-1.3,0.6-1.8,0.7c-0.5,0.2-1,0.2-1.4,0.2
		c-0.9,0-1.6-0.3-2.3-0.8c-0.7-0.5-1.2-1.3-1.7-2.3c-0.4-1-0.8-2.2-1-3.6c-0.2-1.4-0.3-3-0.3-4.7c0-0.7,0-1.4,0.1-2.2
		c0.1-0.8,0.1-1.5,0.2-2.3c-0.3,0-0.6-0.1-0.8-0.1c-0.2,0-0.4-0.1-0.6-0.1c-0.2,0-0.5-0.1-0.8-0.1c-0.3,0-0.8-0.1-1.4-0.2
		c-0.3,0-0.5-0.1-0.6-0.2s-0.3-0.2-0.3-0.3s-0.1-0.3-0.1-0.4s0-0.3,0-0.4c0-0.2,0.1-0.4,0.3-0.5c0.2-0.1,0.5-0.2,0.9-0.3
		c0.3-0.1,0.7-0.1,1.1-0.1c0.4,0,0.8,0,1.2,0c0.4,0,0.7,0,1,0c0.3,0,0.5,0,0.6,0c0.3-1.5,0.7-3,1.2-4.5s1-2.7,1.6-3.8
		c0.6-1.1,1.2-2,1.9-2.7c0.7-0.7,1.4-1,2.2-1c0.5,0,0.9,0.1,1.3,0.4s0.7,0.6,1,1.1c0.3,0.5,0.5,1,0.7,1.6c0.2,0.6,0.2,1.2,0.2,1.9
		c0,0.6-0.1,1.1-0.2,1.8s-0.4,1.3-0.6,1.9c-0.3,0.6-0.6,1.3-1,2c-0.4,0.7-0.8,1.3-1.2,2c0.1,0,0.3,0,0.5,0s0.5,0,0.8,0
		c0.3,0,0.7,0,1,0c0.4,0,0.7,0,1.1,0c0.3,0,0.7,0,1,0c0.3,0,0.5,0,0.7,0c0.2,0,0.4,0.1,0.5,0.3c0.1,0.2,0.2,0.5,0.2,0.8
		c0,0.4-0.1,0.7-0.3,1c-0.2,0.3-0.5,0.4-0.8,0.4h-6.6c-0.3,0.5-0.7,0.9-1,1.3s-0.6,0.8-0.9,1.2c0,0.7-0.1,1.4-0.1,2.1
		c0,0.3,0,0.6,0,0.9c0,0.3,0,0.6,0,0.9s0,0.6,0,0.9c0,0.3,0,0.5,0,0.8c0,0.6,0.1,1.1,0.2,1.6c0.1,0.4,0.3,0.8,0.5,1
		c0.2,0.3,0.5,0.5,0.8,0.6c0.3,0.1,0.7,0.2,1.1,0.2c0.2,0,0.5-0.1,0.9-0.2c0.4-0.1,0.8-0.3,1.2-0.5c0.4-0.2,0.9-0.4,1.3-0.7
		s0.9-0.6,1.4-0.9c0.5-0.3,0.9-0.7,1.3-1c0.4-0.4,0.8-0.7,1.1-1.1V29z M175.1,7.4c0-0.1,0-0.3,0-0.4c0-0.2-0.1-0.3-0.1-0.4
		s-0.1-0.2-0.3-0.3c-0.1-0.1-0.3-0.1-0.5-0.1c-0.3,0-0.6,0.3-0.9,0.8c-0.3,0.5-0.6,1.2-0.9,2c-0.3,0.8-0.5,1.7-0.8,2.7
		c-0.2,1-0.5,1.9-0.7,2.9c0.2,0,0.3,0,0.5,0.1c0.2,0,0.3,0,0.5,0.1c0.3-0.6,0.7-1.2,1.1-1.9s0.7-1.3,1-2c0.3-0.7,0.5-1.3,0.7-1.8
		C175,8.2,175.1,7.8,175.1,7.4z"/>
	<path class="st1" d="M199.9,29.6c0,0,0,0.2,0,0.3c0,0.2,0,0.4-0.1,0.6s-0.2,0.5-0.3,0.8s-0.3,0.5-0.6,0.7c-0.2,0.2-0.5,0.4-0.9,0.6
		c-0.4,0.1-0.8,0.2-1.3,0.2c-0.4,0-0.8-0.1-1.1-0.2s-0.6-0.3-0.9-0.5c-0.2-0.2-0.4-0.5-0.6-0.9c-0.1-0.3-0.2-0.8-0.2-1.3
		c0-0.4,0.1-0.8,0.2-1.2c0.1-0.4,0.3-0.7,0.6-1.1c0.2-0.3,0.6-0.6,1-0.7c0.4-0.2,0.9-0.3,1.4-0.3c0.9,0,1.7,0.2,2.2,0.7
		C199.7,28,199.9,28.7,199.9,29.6z M199.3,22.9c-0.2,0.5-0.4,1-0.7,1.2c-0.3,0.3-0.7,0.4-1,0.4c-0.4,0-0.7-0.1-1.1-0.3
		c-0.3-0.2-0.5-0.4-0.5-0.8c0-1,0.2-1.9,0.5-2.7c0.3-0.8,0.8-1.4,1.3-2c0.5-0.6,1-1.1,1.6-1.6c0.6-0.5,1.1-1,1.6-1.6
		c0.5-0.5,0.9-1.1,1.3-1.8c0.3-0.6,0.5-1.4,0.5-2.2c0-0.5-0.1-0.9-0.3-1.2c-0.2-0.3-0.4-0.6-0.7-0.8s-0.6-0.4-0.9-0.5
		c-0.3-0.1-0.7-0.1-1-0.1c-0.3,0-0.5,0.1-0.8,0.2c-0.3,0.2-0.6,0.3-0.8,0.6c-0.3,0.2-0.5,0.4-0.6,0.7c-0.2,0.2-0.3,0.4-0.3,0.6
		c-0.2,0.2-0.4,0.4-0.7,0.5s-0.5,0.2-0.8,0.2c-0.2,0-0.4-0.1-0.6-0.2c-0.2-0.1-0.4-0.3-0.6-0.5c-0.2-0.2-0.3-0.4-0.4-0.7
		c-0.1-0.3-0.2-0.6-0.2-0.9c0-0.2,0.1-0.5,0.3-0.8c0.3-0.5,0.7-1,1.2-1.4c0.5-0.4,1-0.7,1.5-1c0.5-0.3,1.1-0.5,1.7-0.6
		s1.2-0.2,1.7-0.2c0.7,0,1.4,0.1,2.2,0.3c0.8,0.2,1.5,0.6,2.1,1c0.6,0.5,1.2,1.1,1.6,1.8c0.4,0.7,0.6,1.6,0.6,2.6
		c0,1.2-0.1,2.2-0.4,3.1c-0.3,0.9-0.7,1.6-1.1,2.2c-0.5,0.6-1,1.2-1.5,1.7c-0.6,0.5-1.1,1-1.7,1.4c-0.6,0.5-1.1,0.9-1.6,1.4
		C200.1,21.6,199.7,22.2,199.3,22.9z"/>
</g>
</svg>
