<?xml version="1.0" encoding="utf-8"?>
<!-- Generator: Adobe Illustrator 21.1.0, SVG Export Plug-In . SVG Version: 6.00 Build 0)  -->
<svg version="1.1" id="Calque_1" xmlns="http://www.w3.org/2000/svg" xmlns:xlink="http://www.w3.org/1999/xlink" x="0px" y="0px"
	 viewBox="0 0 25.2 22.5" style="enable-background:new 0 0 25.2 22.5;" xml:space="preserve">
<style type="text/css">
	.st0{fill:#FFFFFF;}
</style>
<title>Shape</title>
<desc>Created with Sketch.</desc>
<g id="Symbols">
	<g id="ic_x2F_thumb_x5F_up_x2F_grey600" transform="translate(-1.000000, -1.000000)">
		<g id="ic_thumb_up_24px">
			<path id="Shape" class="st0" d="M24.4,2.2h-4v12h4V2.2z M2.4,13.2c0,1.1,0.9,2,2,2h6.3l-1,4.6v0.3c0,0.4,0.2,0.8,0.4,1.1l1.1,1
				l6.6-6.6c0.4-0.4,0.6-0.9,0.6-1.4v-10c0-1.1-0.9-2-2-2h-9c-0.8,0-1.5,0.5-1.8,1.2l-3,7.1c-0.2,0.2-0.2,0.4-0.2,0.7V13.2z"/>
		</g>
	</g>
</g>
</svg>
