<?xml version="1.0" encoding="utf-8"?>
<!-- Generator: Adobe Illustrator 21.1.0, SVG Export Plug-In . SVG Version: 6.00 Build 0)  -->
<svg version="1.1" id="Layer_1" xmlns="http://www.w3.org/2000/svg" xmlns:xlink="http://www.w3.org/1999/xlink" x="0px" y="0px"
	 viewBox="0 0 25.8 25.4" style="enable-background:new 0 0 25.8 25.4;" xml:space="preserve">
<style type="text/css">
	.st0{fill:#3CB4CB;}
</style>
<g>
	<g>
		<path class="st0" d="M25.5,10.1l-12-8.8c-0.2-0.2-0.5-0.2-0.8,0L0.6,10.1c-0.3,0.2-0.4,0.6-0.1,0.9s0.6,0.4,0.9,0.1l11.7-8.5
			l11.7,8.5c0.1,0.1,0.3,0.1,0.4,0.1c0.2,0,0.4-0.1,0.5-0.3C25.9,10.7,25.8,10.3,25.5,10.1z"/>
	</g>
</g>
<g>
	<g>
		<path class="st0" d="M22.3,11.3c-0.4,0-0.7,0.3-0.7,0.7v10.5h-5.3v-5.7c0-1.8-1.5-3.3-3.3-3.3S9.8,15,9.8,16.8v5.7H4.5V12
			c0-0.4-0.3-0.7-0.7-0.7S3.2,11.6,3.2,12v11.2c0,0.4,0.3,0.7,0.7,0.7h6.6c0.3,0,0.6-0.3,0.7-0.6l0,0v-6.4c0-1.1,0.9-2,2-2
			s2,0.9,2,2v6.4l0,0c0,0.3,0.3,0.6,0.7,0.6h6.6c0.4,0,0.7-0.3,0.7-0.7V12C23,11.6,22.7,11.3,22.3,11.3z"/>
	</g>
</g>
</svg>
