<?xml version="1.0" encoding="utf-8"?>
<!-- Generator: Adobe Illustrator 21.1.0, SVG Export Plug-In . SVG Version: 6.00 Build 0)  -->
<svg version="1.1" id="Calque_1" xmlns="http://www.w3.org/2000/svg" xmlns:xlink="http://www.w3.org/1999/xlink" x="0px" y="0px"
	 viewBox="0 0 11 11" style="enable-background:new 0 0 11 11;" xml:space="preserve">
<style type="text/css">
	.st0{fill:#3CB4CB;}
</style>
<title>Shape</title>
<desc>Created with Sketch.</desc>
<g id="Symbols">
	<g id="Content_x2F_Search_x2F_Results" transform="translate(-311.000000, -69.000000)">
		<g id="Button_x2F_Search" transform="translate(303.000000, 61.000000)">
			<g id="ic_search_24px" transform="translate(7.000000, 7.000000)">
				<path id="Shape" class="st0" d="M8.8,8H8.4L8.2,7.8c0.6-0.7,0.9-1.5,0.9-2.5c0-2.1-1.7-3.8-3.8-3.8S1.6,3.2,1.6,5.3
					s1.7,3.8,3.8,3.8c0.9,0,1.7-0.3,2.4-0.9L8,8.4v0.4l2.9,2.9l0.9-0.9L8.8,8z M5.3,8C3.9,8,2.7,6.8,2.7,5.3s1.2-2.6,2.6-2.6
					s2.6,1.2,2.6,2.6S6.8,8,5.3,8z"/>
			</g>
		</g>
	</g>
</g>
</svg>
