<?xml version="1.0" encoding="utf-8"?>
<!-- Generator: Adobe Illustrator 21.1.0, SVG Export Plug-In . SVG Version: 6.00 Build 0)  -->
<svg version="1.1" id="Calque_1" xmlns="http://www.w3.org/2000/svg" xmlns:xlink="http://www.w3.org/1999/xlink" x="0px" y="0px"
	 viewBox="0 0 25.2 22.5" style="enable-background:new 0 0 25.2 22.5;" xml:space="preserve">
<style type="text/css">
	.st0{fill:#FFFFFF;}
</style>
<title>Shape</title>
<desc>Created with Sketch.</desc>
<g id="Symbols">
	<g id="ic_x2F_thumb_x5F_up_x2F_grey600" transform="translate(-1.000000, -1.000000)">
		<g id="ic_thumb_up_24px">
			<path id="Shape" class="st0" d="M2.4,22.2h4v-12h-4V22.2z M24.4,11.2c0-1.1-0.9-2-2-2h-6.3l1-4.6V4.3c0-0.4-0.2-0.8-0.4-1.1
				l-1.1-1L9,8.8c-0.4,0.4-0.6,0.9-0.6,1.4v10c0,1.1,0.9,2,2,2h9c0.8,0,1.5-0.5,1.8-1.2l3-7.1c0.2-0.2,0.2-0.4,0.2-0.7V11.2z"/>
		</g>
	</g>
</g>
</svg>
