<?xml version="1.0" encoding="utf-8"?>
<!-- Generator: Adobe Illustrator 21.1.0, SVG Export Plug-In . SVG Version: 6.00 Build 0)  -->
<svg version="1.1" id="Calque_1" xmlns="http://www.w3.org/2000/svg" xmlns:xlink="http://www.w3.org/1999/xlink" x="0px" y="0px"
	 viewBox="0 0 18 18" style="enable-background:new 0 0 18 18;" xml:space="preserve">
<style type="text/css">
	.st0{fill:#3CB4CB;}
</style>
<title>user</title>
<desc>Created with Sketch.</desc>
<g id="Symbols">
	<g id="Menu_x2F_Bottom" transform="translate(-318.000000, -23.000000)">
		<g id="user" transform="translate(318.000000, 23.000000)">
			<path id="Shape" class="st0" d="M15.4,11.6c-1-1-2.1-1.7-3.4-2.1c1.4-0.9,2.3-2.5,2.3-4.3C14.2,2.3,11.9,0,9,0S3.8,2.3,3.8,5.2
				c0,1.8,0.9,3.3,2.3,4.3c-1.3,0.4-2.4,1.2-3.4,2.1C0.9,13.3,0,15.6,0,18h1.4c0-4.2,3.4-7.6,7.6-7.6s7.6,3.4,7.6,7.6H18
				C18,15.6,17.1,13.3,15.4,11.6z M9,9C6.9,9,5.2,7.3,5.2,5.2S6.9,1.4,9,1.4s3.8,1.7,3.8,3.8S11.1,9,9,9z"/>
		</g>
	</g>
</g>
</svg>
